<mxfile host="app.diagrams.net" modified="2023-07-14T09:12:44.504Z" agent="Mozilla/5.0 (Windows NT 10.0; Win64; x64) AppleWebKit/537.36 (KHTML, like Gecko) Chrome/114.0.0.0 Safari/537.36" etag="SxeBgPIDy1YwCDUrxWfg" version="21.6.2" type="device">
  <diagram name="Page-1" id="929967ad-93f9-6ef4-fab6-5d389245f69c">
    <mxGraphModel dx="2074" dy="2307" grid="1" gridSize="10" guides="1" tooltips="1" connect="1" arrows="1" fold="1" page="1" pageScale="1.5" pageWidth="1169" pageHeight="826" background="none" math="0" shadow="0">
      <root>
        <mxCell id="0" style=";html=1;" />
        <mxCell id="1" style=";html=1;" parent="0" />
        <mxCell id="lPuB8WdmIO2W0yDdV0Bj-1" value="svr frame" style="shape=umlFrame;whiteSpace=wrap;html=1;pointerEvents=0;" vertex="1" parent="1">
          <mxGeometry x="60" y="-20" width="1650" height="1060" as="geometry" />
        </mxCell>
        <mxCell id="lPuB8WdmIO2W0yDdV0Bj-2" value="GM" style="verticalAlign=top;align=left;spacingTop=8;spacingLeft=2;spacingRight=12;shape=cube;size=10;direction=south;fontStyle=4;html=1;whiteSpace=wrap;fillColor=#f5f5f5;fontColor=#333333;strokeColor=#666666;" vertex="1" parent="1">
          <mxGeometry x="300" y="310" width="170" height="150" as="geometry" />
        </mxCell>
        <mxCell id="lPuB8WdmIO2W0yDdV0Bj-73" style="edgeStyle=orthogonalEdgeStyle;rounded=0;orthogonalLoop=1;jettySize=auto;html=1;entryX=0.694;entryY=0.997;entryDx=0;entryDy=0;entryPerimeter=0;" edge="1" parent="1" source="lPuB8WdmIO2W0yDdV0Bj-4" target="lPuB8WdmIO2W0yDdV0Bj-33">
          <mxGeometry relative="1" as="geometry" />
        </mxCell>
        <mxCell id="lPuB8WdmIO2W0yDdV0Bj-4" value="gameplay" style="verticalAlign=top;align=left;spacingTop=8;spacingLeft=2;spacingRight=12;shape=cube;size=10;direction=south;fontStyle=4;html=1;whiteSpace=wrap;fillColor=#d5e8d4;strokeColor=#82b366;" vertex="1" parent="1">
          <mxGeometry x="697" y="430" width="360" height="240" as="geometry" />
        </mxCell>
        <mxCell id="lPuB8WdmIO2W0yDdV0Bj-10" style="edgeStyle=orthogonalEdgeStyle;rounded=0;orthogonalLoop=1;jettySize=auto;html=1;exitX=0.5;exitY=1;exitDx=0;exitDy=0;" edge="1" parent="1" source="lPuB8WdmIO2W0yDdV0Bj-7" target="lPuB8WdmIO2W0yDdV0Bj-8">
          <mxGeometry relative="1" as="geometry">
            <Array as="points">
              <mxPoint x="890" y="550" />
              <mxPoint x="820" y="550" />
            </Array>
          </mxGeometry>
        </mxCell>
        <mxCell id="lPuB8WdmIO2W0yDdV0Bj-16" style="edgeStyle=orthogonalEdgeStyle;rounded=0;orthogonalLoop=1;jettySize=auto;html=1;exitX=0.5;exitY=1;exitDx=0;exitDy=0;" edge="1" parent="1" source="lPuB8WdmIO2W0yDdV0Bj-7" target="lPuB8WdmIO2W0yDdV0Bj-9">
          <mxGeometry relative="1" as="geometry">
            <Array as="points">
              <mxPoint x="890" y="550" />
              <mxPoint x="965" y="550" />
            </Array>
          </mxGeometry>
        </mxCell>
        <mxCell id="lPuB8WdmIO2W0yDdV0Bj-70" style="edgeStyle=orthogonalEdgeStyle;rounded=0;orthogonalLoop=1;jettySize=auto;html=1;entryX=0.291;entryY=1.003;entryDx=0;entryDy=0;entryPerimeter=0;exitX=0.019;exitY=0.258;exitDx=0;exitDy=0;exitPerimeter=0;" edge="1" parent="1" source="lPuB8WdmIO2W0yDdV0Bj-4" target="lPuB8WdmIO2W0yDdV0Bj-29">
          <mxGeometry relative="1" as="geometry" />
        </mxCell>
        <mxCell id="lPuB8WdmIO2W0yDdV0Bj-7" value="Manager" style="shape=module;align=left;spacingLeft=20;align=center;verticalAlign=top;whiteSpace=wrap;html=1;" vertex="1" parent="1">
          <mxGeometry x="840" y="450" width="100" height="50" as="geometry" />
        </mxCell>
        <mxCell id="lPuB8WdmIO2W0yDdV0Bj-9" value="play" style="shape=module;align=left;spacingLeft=20;align=center;verticalAlign=top;whiteSpace=wrap;html=1;" vertex="1" parent="1">
          <mxGeometry x="900" y="580" width="130" height="50" as="geometry" />
        </mxCell>
        <mxCell id="lPuB8WdmIO2W0yDdV0Bj-12" value="online" style="verticalAlign=top;align=left;spacingTop=8;spacingLeft=2;spacingRight=12;shape=cube;size=10;direction=south;fontStyle=4;html=1;whiteSpace=wrap;fillColor=#ffe6cc;strokeColor=#d79b00;" vertex="1" parent="1">
          <mxGeometry x="340" y="670" width="190" height="130" as="geometry" />
        </mxCell>
        <mxCell id="lPuB8WdmIO2W0yDdV0Bj-28" style="edgeStyle=orthogonalEdgeStyle;rounded=0;orthogonalLoop=1;jettySize=auto;html=1;" edge="1" parent="1" source="lPuB8WdmIO2W0yDdV0Bj-8" target="lPuB8WdmIO2W0yDdV0Bj-18">
          <mxGeometry relative="1" as="geometry" />
        </mxCell>
        <mxCell id="lPuB8WdmIO2W0yDdV0Bj-8" value="play" style="shape=module;align=left;spacingLeft=20;align=center;verticalAlign=top;whiteSpace=wrap;html=1;" vertex="1" parent="1">
          <mxGeometry x="750" y="580" width="110" height="50" as="geometry" />
        </mxCell>
        <mxCell id="lPuB8WdmIO2W0yDdV0Bj-76" style="edgeStyle=orthogonalEdgeStyle;rounded=0;orthogonalLoop=1;jettySize=auto;html=1;entryX=1.003;entryY=0.436;entryDx=0;entryDy=0;entryPerimeter=0;" edge="1" parent="1" source="lPuB8WdmIO2W0yDdV0Bj-17" target="lPuB8WdmIO2W0yDdV0Bj-4">
          <mxGeometry relative="1" as="geometry" />
        </mxCell>
        <mxCell id="lPuB8WdmIO2W0yDdV0Bj-17" value="gate" style="verticalAlign=top;align=left;spacingTop=8;spacingLeft=2;spacingRight=12;shape=cube;size=10;direction=south;fontStyle=4;html=1;whiteSpace=wrap;fillColor=#f8cecc;strokeColor=#b85450;" vertex="1" parent="1">
          <mxGeometry x="645" y="810" width="510" height="120" as="geometry" />
        </mxCell>
        <mxCell id="lPuB8WdmIO2W0yDdV0Bj-26" style="edgeStyle=orthogonalEdgeStyle;rounded=0;orthogonalLoop=1;jettySize=auto;html=1;entryX=-0.022;entryY=0.757;entryDx=0;entryDy=0;entryPerimeter=0;" edge="1" parent="1" source="lPuB8WdmIO2W0yDdV0Bj-18" target="lPuB8WdmIO2W0yDdV0Bj-17">
          <mxGeometry relative="1" as="geometry" />
        </mxCell>
        <mxCell id="lPuB8WdmIO2W0yDdV0Bj-18" value="online" style="shape=module;align=left;spacingLeft=20;align=center;verticalAlign=top;whiteSpace=wrap;html=1;" vertex="1" parent="1">
          <mxGeometry x="390" y="725" width="70" height="40" as="geometry" />
        </mxCell>
        <mxCell id="lPuB8WdmIO2W0yDdV0Bj-19" value="gate" style="shape=module;align=left;spacingLeft=20;align=center;verticalAlign=top;whiteSpace=wrap;html=1;" vertex="1" parent="1">
          <mxGeometry x="697" y="850" width="70" height="40" as="geometry" />
        </mxCell>
        <mxCell id="lPuB8WdmIO2W0yDdV0Bj-20" value="gate" style="shape=module;align=left;spacingLeft=20;align=center;verticalAlign=top;whiteSpace=wrap;html=1;" vertex="1" parent="1">
          <mxGeometry x="850" y="850" width="70" height="40" as="geometry" />
        </mxCell>
        <mxCell id="lPuB8WdmIO2W0yDdV0Bj-21" value="gate" style="shape=module;align=left;spacingLeft=20;align=center;verticalAlign=top;whiteSpace=wrap;html=1;" vertex="1" parent="1">
          <mxGeometry x="1010" y="850" width="70" height="40" as="geometry" />
        </mxCell>
        <mxCell id="lPuB8WdmIO2W0yDdV0Bj-24" style="edgeStyle=orthogonalEdgeStyle;rounded=0;orthogonalLoop=1;jettySize=auto;html=1;exitX=1;exitY=0.5;exitDx=0;exitDy=0;" edge="1" parent="1" source="lPuB8WdmIO2W0yDdV0Bj-22" target="lPuB8WdmIO2W0yDdV0Bj-7">
          <mxGeometry relative="1" as="geometry" />
        </mxCell>
        <mxCell id="lPuB8WdmIO2W0yDdV0Bj-22" value="admin" style="shape=module;align=left;spacingLeft=20;align=center;verticalAlign=top;whiteSpace=wrap;html=1;" vertex="1" parent="1">
          <mxGeometry x="330" y="360" width="100" height="50" as="geometry" />
        </mxCell>
        <mxCell id="lPuB8WdmIO2W0yDdV0Bj-29" value="base" style="verticalAlign=top;align=left;spacingTop=8;spacingLeft=2;spacingRight=12;shape=cube;size=10;direction=south;fontStyle=4;html=1;whiteSpace=wrap;fillColor=#dae8fc;strokeColor=#6c8ebf;" vertex="1" parent="1">
          <mxGeometry x="1057" y="50" width="340" height="300" as="geometry" />
        </mxCell>
        <mxCell id="lPuB8WdmIO2W0yDdV0Bj-30" value="cron" style="shape=module;align=left;spacingLeft=20;align=center;verticalAlign=top;whiteSpace=wrap;html=1;" vertex="1" parent="1">
          <mxGeometry x="1150" y="80" width="100" height="50" as="geometry" />
        </mxCell>
        <mxCell id="lPuB8WdmIO2W0yDdV0Bj-31" value="mq" style="shape=module;align=left;spacingLeft=20;align=center;verticalAlign=top;whiteSpace=wrap;html=1;" vertex="1" parent="1">
          <mxGeometry x="1150" y="160" width="100" height="50" as="geometry" />
        </mxCell>
        <mxCell id="lPuB8WdmIO2W0yDdV0Bj-32" value="DB" style="shape=module;align=left;spacingLeft=20;align=center;verticalAlign=top;whiteSpace=wrap;html=1;" vertex="1" parent="1">
          <mxGeometry x="1160" y="250" width="100" height="50" as="geometry" />
        </mxCell>
        <mxCell id="lPuB8WdmIO2W0yDdV0Bj-38" style="edgeStyle=orthogonalEdgeStyle;rounded=0;orthogonalLoop=1;jettySize=auto;html=1;entryX=1;entryY=0.5;entryDx=0;entryDy=0;" edge="1" parent="1" source="lPuB8WdmIO2W0yDdV0Bj-33" target="lPuB8WdmIO2W0yDdV0Bj-31">
          <mxGeometry relative="1" as="geometry" />
        </mxCell>
        <mxCell id="lPuB8WdmIO2W0yDdV0Bj-33" value="main play" style="verticalAlign=top;align=left;spacingTop=8;spacingLeft=2;spacingRight=12;shape=cube;size=10;direction=south;fontStyle=4;html=1;whiteSpace=wrap;fillColor=#e1d5e7;strokeColor=#9673a6;" vertex="1" parent="1">
          <mxGeometry x="1350" y="420" width="220" height="270" as="geometry" />
        </mxCell>
        <mxCell id="lPuB8WdmIO2W0yDdV0Bj-34" value="battle" style="shape=module;align=left;spacingLeft=20;align=center;verticalAlign=top;whiteSpace=wrap;html=1;" vertex="1" parent="1">
          <mxGeometry x="1370" y="460" width="100" height="50" as="geometry" />
        </mxCell>
        <mxCell id="lPuB8WdmIO2W0yDdV0Bj-35" value="player" style="shape=module;align=left;spacingLeft=20;align=center;verticalAlign=top;whiteSpace=wrap;html=1;" vertex="1" parent="1">
          <mxGeometry x="1370" y="530" width="100" height="50" as="geometry" />
        </mxCell>
        <mxCell id="lPuB8WdmIO2W0yDdV0Bj-36" value="copy" style="shape=module;align=left;spacingLeft=20;align=center;verticalAlign=top;whiteSpace=wrap;html=1;" vertex="1" parent="1">
          <mxGeometry x="1370" y="610" width="100" height="50" as="geometry" />
        </mxCell>
        <mxCell id="lPuB8WdmIO2W0yDdV0Bj-40" style="edgeStyle=orthogonalEdgeStyle;rounded=0;orthogonalLoop=1;jettySize=auto;html=1;" edge="1" parent="1" source="lPuB8WdmIO2W0yDdV0Bj-39">
          <mxGeometry relative="1" as="geometry">
            <mxPoint x="1300" y="260" as="targetPoint" />
          </mxGeometry>
        </mxCell>
        <mxCell id="lPuB8WdmIO2W0yDdV0Bj-39" value="domain event" style="shape=note;whiteSpace=wrap;html=1;backgroundOutline=1;darkOpacity=0.05;fillColor=#fff2cc;strokeColor=#d6b656;" vertex="1" parent="1">
          <mxGeometry x="1490" y="230" width="170" height="60" as="geometry" />
        </mxCell>
        <mxCell id="lPuB8WdmIO2W0yDdV0Bj-46" style="edgeStyle=orthogonalEdgeStyle;rounded=0;orthogonalLoop=1;jettySize=auto;html=1;" edge="1" parent="1" source="lPuB8WdmIO2W0yDdV0Bj-41" target="lPuB8WdmIO2W0yDdV0Bj-19">
          <mxGeometry relative="1" as="geometry" />
        </mxCell>
        <mxCell id="lPuB8WdmIO2W0yDdV0Bj-47" style="edgeStyle=orthogonalEdgeStyle;rounded=0;orthogonalLoop=1;jettySize=auto;html=1;" edge="1" parent="1" source="lPuB8WdmIO2W0yDdV0Bj-41" target="lPuB8WdmIO2W0yDdV0Bj-20">
          <mxGeometry relative="1" as="geometry" />
        </mxCell>
        <mxCell id="lPuB8WdmIO2W0yDdV0Bj-48" style="edgeStyle=orthogonalEdgeStyle;rounded=0;orthogonalLoop=1;jettySize=auto;html=1;entryX=0.75;entryY=1;entryDx=0;entryDy=0;" edge="1" parent="1" source="lPuB8WdmIO2W0yDdV0Bj-41" target="lPuB8WdmIO2W0yDdV0Bj-21">
          <mxGeometry relative="1" as="geometry" />
        </mxCell>
        <mxCell id="lPuB8WdmIO2W0yDdV0Bj-41" value="player" style="shape=umlActor;verticalLabelPosition=bottom;verticalAlign=top;html=1;" vertex="1" parent="1">
          <mxGeometry x="870" y="1060" width="30" height="60" as="geometry" />
        </mxCell>
        <mxCell id="lPuB8WdmIO2W0yDdV0Bj-49" value="player" style="shape=umlActor;verticalLabelPosition=bottom;verticalAlign=top;html=1;" vertex="1" parent="1">
          <mxGeometry x="820" y="1110" width="30" height="60" as="geometry" />
        </mxCell>
        <mxCell id="lPuB8WdmIO2W0yDdV0Bj-51" style="edgeStyle=orthogonalEdgeStyle;rounded=0;orthogonalLoop=1;jettySize=auto;html=1;entryX=0;entryY=0;entryDx=110;entryDy=10;entryPerimeter=0;" edge="1" parent="1" source="lPuB8WdmIO2W0yDdV0Bj-50" target="lPuB8WdmIO2W0yDdV0Bj-17">
          <mxGeometry relative="1" as="geometry" />
        </mxCell>
        <mxCell id="lPuB8WdmIO2W0yDdV0Bj-50" value="client&amp;nbsp; 唯一上行人口" style="shape=note;whiteSpace=wrap;html=1;backgroundOutline=1;darkOpacity=0.05;fillColor=#fff2cc;strokeColor=#d6b656;" vertex="1" parent="1">
          <mxGeometry x="1214" y="960" width="183" height="60" as="geometry" />
        </mxCell>
        <mxCell id="lPuB8WdmIO2W0yDdV0Bj-53" style="edgeStyle=orthogonalEdgeStyle;rounded=0;orthogonalLoop=1;jettySize=auto;html=1;" edge="1" parent="1" source="lPuB8WdmIO2W0yDdV0Bj-52" target="lPuB8WdmIO2W0yDdV0Bj-12">
          <mxGeometry relative="1" as="geometry" />
        </mxCell>
        <mxCell id="lPuB8WdmIO2W0yDdV0Bj-52" value="维护玩家参加的对局实例" style="shape=note;whiteSpace=wrap;html=1;backgroundOutline=1;darkOpacity=0.05;fillColor=#fff2cc;strokeColor=#d6b656;" vertex="1" parent="1">
          <mxGeometry x="70" y="702.5" width="150" height="65" as="geometry" />
        </mxCell>
        <mxCell id="lPuB8WdmIO2W0yDdV0Bj-55" style="edgeStyle=orthogonalEdgeStyle;rounded=0;orthogonalLoop=1;jettySize=auto;html=1;" edge="1" parent="1" source="lPuB8WdmIO2W0yDdV0Bj-54">
          <mxGeometry relative="1" as="geometry">
            <mxPoint x="570" y="790" as="targetPoint" />
          </mxGeometry>
        </mxCell>
        <mxCell id="lPuB8WdmIO2W0yDdV0Bj-54" value="更新玩家参加的对局实例" style="shape=note;whiteSpace=wrap;html=1;backgroundOutline=1;darkOpacity=0.05;fillColor=#fff2cc;strokeColor=#d6b656;" vertex="1" parent="1">
          <mxGeometry x="510" y="930" width="120" height="60" as="geometry" />
        </mxCell>
        <mxCell id="lPuB8WdmIO2W0yDdV0Bj-57" style="edgeStyle=orthogonalEdgeStyle;rounded=0;orthogonalLoop=1;jettySize=auto;html=1;" edge="1" parent="1" source="lPuB8WdmIO2W0yDdV0Bj-56">
          <mxGeometry relative="1" as="geometry">
            <mxPoint x="570" y="610" as="targetPoint" />
          </mxGeometry>
        </mxCell>
        <mxCell id="lPuB8WdmIO2W0yDdV0Bj-56" value="进入或者退出对局通知" style="shape=note;whiteSpace=wrap;html=1;backgroundOutline=1;darkOpacity=0.05;fillColor=#fff2cc;strokeColor=#d6b656;" vertex="1" parent="1">
          <mxGeometry x="70" y="520" width="190" height="50" as="geometry" />
        </mxCell>
        <mxCell id="lPuB8WdmIO2W0yDdV0Bj-61" style="edgeStyle=orthogonalEdgeStyle;rounded=0;orthogonalLoop=1;jettySize=auto;html=1;entryX=0.25;entryY=0;entryDx=0;entryDy=0;" edge="1" parent="1" source="lPuB8WdmIO2W0yDdV0Bj-58" target="lPuB8WdmIO2W0yDdV0Bj-7">
          <mxGeometry relative="1" as="geometry" />
        </mxCell>
        <mxCell id="lPuB8WdmIO2W0yDdV0Bj-58" value="管理玩法，对局" style="shape=note;whiteSpace=wrap;html=1;backgroundOutline=1;darkOpacity=0.05;fillColor=#fff2cc;strokeColor=#d6b656;" vertex="1" parent="1">
          <mxGeometry x="640" y="250" width="140" height="60" as="geometry" />
        </mxCell>
        <mxCell id="lPuB8WdmIO2W0yDdV0Bj-72" style="edgeStyle=orthogonalEdgeStyle;rounded=0;orthogonalLoop=1;jettySize=auto;html=1;" edge="1" parent="1" source="lPuB8WdmIO2W0yDdV0Bj-71">
          <mxGeometry relative="1" as="geometry">
            <mxPoint x="1010" y="140" as="targetPoint" />
          </mxGeometry>
        </mxCell>
        <mxCell id="lPuB8WdmIO2W0yDdV0Bj-71" value="1.添加定时任务；&lt;br&gt;2存储数据；&lt;br&gt;3.发布订阅；&lt;br&gt;4.查询局外数据；" style="shape=note;whiteSpace=wrap;html=1;backgroundOutline=1;darkOpacity=0.05;fillColor=#fff2cc;strokeColor=#d6b656;" vertex="1" parent="1">
          <mxGeometry x="740" y="10" width="160" height="60" as="geometry" />
        </mxCell>
        <mxCell id="lPuB8WdmIO2W0yDdV0Bj-75" style="edgeStyle=orthogonalEdgeStyle;rounded=0;orthogonalLoop=1;jettySize=auto;html=1;" edge="1" parent="1" source="lPuB8WdmIO2W0yDdV0Bj-74">
          <mxGeometry relative="1" as="geometry">
            <mxPoint x="1173" y="550" as="targetPoint" />
          </mxGeometry>
        </mxCell>
        <mxCell id="lPuB8WdmIO2W0yDdV0Bj-74" value="1.发放物品；&lt;br&gt;2.创建怪物；" style="shape=note;whiteSpace=wrap;html=1;backgroundOutline=1;darkOpacity=0.05;fillColor=#fff2cc;strokeColor=#d6b656;" vertex="1" parent="1">
          <mxGeometry x="1083" y="400" width="180" height="100" as="geometry" />
        </mxCell>
        <mxCell id="lPuB8WdmIO2W0yDdV0Bj-79" style="edgeStyle=orthogonalEdgeStyle;rounded=0;orthogonalLoop=1;jettySize=auto;html=1;" edge="1" parent="1" source="lPuB8WdmIO2W0yDdV0Bj-77">
          <mxGeometry relative="1" as="geometry">
            <mxPoint x="900" y="750" as="targetPoint" />
          </mxGeometry>
        </mxCell>
        <mxCell id="lPuB8WdmIO2W0yDdV0Bj-77" value="局内，局外路由，局内路由到所在实例，局外随机路由" style="shape=note;whiteSpace=wrap;html=1;backgroundOutline=1;darkOpacity=0.05;fillColor=#fff2cc;strokeColor=#d6b656;" vertex="1" parent="1">
          <mxGeometry x="1020" y="714" width="380" height="73" as="geometry" />
        </mxCell>
        <mxCell id="lPuB8WdmIO2W0yDdV0Bj-82" style="edgeStyle=orthogonalEdgeStyle;rounded=0;orthogonalLoop=1;jettySize=auto;html=1;" edge="1" parent="1" source="lPuB8WdmIO2W0yDdV0Bj-81">
          <mxGeometry relative="1" as="geometry">
            <mxPoint x="520" y="390" as="targetPoint" />
          </mxGeometry>
        </mxCell>
        <mxCell id="lPuB8WdmIO2W0yDdV0Bj-81" value="路由到玩法管理" style="shape=note;whiteSpace=wrap;html=1;backgroundOutline=1;darkOpacity=0.05;fillColor=#fff2cc;strokeColor=#d6b656;" vertex="1" parent="1">
          <mxGeometry x="465" y="225" width="110" height="70" as="geometry" />
        </mxCell>
        <mxCell id="lPuB8WdmIO2W0yDdV0Bj-83" value="play node 负责局内外玩家行为，局内事件，局内定时任务。&amp;nbsp;对局的生命周期，在内存中维护对局状态，以实现请求低延时，以及请求串行。&lt;br&gt;manager node 管理玩法的生命周期，以及处理局外的定时任务。&lt;br&gt;局外数据保证无状态读写，play,manager node均可以进行操作。&lt;br&gt;play node 会在集群内部部署多个实例，对讲机数据在play node上有状态，manager node 也可以多实例部署，但数据在manager node 无内存状态" style="whiteSpace=wrap;html=1;shape=mxgraph.basic.document;align=left;" vertex="1" parent="1">
          <mxGeometry x="90" y="30" width="370" height="210" as="geometry" />
        </mxCell>
      </root>
    </mxGraphModel>
  </diagram>
</mxfile>
